<?xml version="1.0" encoding="UTF-8" standalone="no"?><!DOCTYPE svg PUBLIC "-//W3C//DTD SVG 1.1//EN" "http://www.w3.org/Graphics/SVG/1.1/DTD/svg11.dtd"><svg width="100%" height="100%" viewBox="0 0 448 512" version="1.1" xmlns="http://www.w3.org/2000/svg" xmlns:xlink="http://www.w3.org/1999/xlink" xml:space="preserve" xmlns:serif="http://www.serif.com/" style="fill-rule:evenodd;clip-rule:evenodd;stroke-linejoin:round;stroke-miterlimit:2;"><path d="M400,32l-352,0c-26.51,0 -48,21.49 -48,48l0,352c0,26.51 21.49,48 48,48l352,0c26.51,0 48,-21.49 48,-48l0,-352c0,-26.51 -21.49,-48 -48,-48Zm0,400l-352,0l0,-352l352,0l0,352Zm-35.864,-241.724l-172.589,171.204c-4.705,4.667 -12.303,4.637 -16.97,-0.068l-90.781,-91.516c-4.667,-4.705 -4.637,-12.303 0.069,-16.971l22.719,-22.536c4.705,-4.667 12.303,-4.637 16.97,0.069l59.792,60.277l141.352,-140.216c4.705,-4.667 12.303,-4.637 16.97,0.068l22.536,22.718c4.667,4.706 4.637,12.304 -0.068,16.971Z" style="fill:#949e9e;fill-rule:nonzero;"/></svg>