<?xml version="1.0" encoding="UTF-8" standalone="no"?>
<!DOCTYPE svg PUBLIC "-//W3C//DTD SVG 1.1//EN" "http://www.w3.org/Graphics/SVG/1.1/DTD/svg11.dtd">
<svg width="100%" height="100%" viewBox="0 0 64 64" version="1.1" xmlns="http://www.w3.org/2000/svg" xmlns:xlink="http://www.w3.org/1999/xlink" xml:space="preserve" xmlns:serif="http://www.serif.com/" style="fill-rule:evenodd;clip-rule:evenodd;stroke-linejoin:round;stroke-miterlimit:1.41421;">
    <g transform="matrix(1.32867,0,0,1.32867,-193.343,-146.175)">
        <path d="M151.231,128.662C152.013,128.913 152.058,128.979 152.377,129.683L157.008,141.527L158.536,138.149C159.023,137.403 159.154,137.351 160,137.307L163.152,137.307L166.927,113.337C166.927,113.337 167.349,112.069 168.359,111.924C169.259,111.794 170.073,112.23 170.28,113.391L174.127,144.313L175.988,135.482C176.487,134.168 178.457,133.99 179.139,135.294L179.787,136.707L182.242,136.707L183.947,129.033C184.341,127.617 186.482,127.303 187.168,128.76L189.838,135.307L193.684,135.307L193.684,138.693L188.533,138.685C187.624,138.55 187.426,138.27 187.132,137.64L186.078,135.055L185.206,138.937C184.942,139.608 184.575,140.043 183.6,140.093L178.475,140.077L175.357,154.948C175.357,154.948 175.186,155.537 174.841,155.851C173.932,156.68 172.296,156.364 172.02,154.809L168.403,125.736L166.273,139.263C166.273,139.263 165.786,140.633 164.6,140.693L161.096,140.693L158.366,146.748C157.659,147.839 155.9,147.797 155.323,146.517L150.818,134.995L149.713,137.86C149.402,138.408 149.081,138.749 148.2,138.793L145.516,138.793L145.516,135.407L147.035,135.407L149.29,129.534C149.835,128.586 150.3,128.469 151.231,128.662Z" style="fill:rgb(119,127,127);fill-rule:nonzero;"/>
    </g>
    <path d="M53.524,5.622L17.524,61.622L12.476,58.378L48.476,2.378C50.159,3.459 51.841,4.541 53.524,5.622Z" style="fill:rgb(206,72,68);fill-rule:nonzero;"/>
</svg>
