<?xml version="1.0" encoding="UTF-8" standalone="no"?><!DOCTYPE svg PUBLIC "-//W3C//DTD SVG 1.1//EN" "http://www.w3.org/Graphics/SVG/1.1/DTD/svg11.dtd"><svg width="100%" height="100%" viewBox="0 0 64 64" version="1.1" xmlns="http://www.w3.org/2000/svg" xmlns:xlink="http://www.w3.org/1999/xlink" xml:space="preserve" xmlns:serif="http://www.serif.com/" style="fill-rule:evenodd;clip-rule:evenodd;stroke-linejoin:round;stroke-miterlimit:1.41421;"><path d="M45.202,0.056l18.719,18.74l-0.015,26.488l-18.74,18.719l-26.488,-0.015l-18.719,-18.74l0.015,-26.488l18.741,-18.719l26.487,0.015Z" style="fill:#ce4844;"/><path d="M12.169,26.129c0.844,0.271 0.892,0.342 1.237,1.102l4.999,12.787l1.65,-3.647c0.526,-0.805 0.667,-0.861 1.58,-0.909l3.403,0l4.076,-25.877c0,0 0.455,-1.369 1.546,-1.526c0.971,-0.14 1.85,0.33 2.074,1.584l4.153,33.383l2.009,-9.534c0.538,-1.419 2.665,-1.611 3.402,-0.203l0.699,1.525l2.65,0l1.841,-8.284c0.425,-1.529 2.737,-1.868 3.477,-0.295l2.883,7.068l4.152,0l0,3.655l-5.561,-0.008c-0.981,-0.146 -1.195,-0.448 -1.512,-1.129l-1.138,-2.79l-0.942,4.191c-0.285,0.724 -0.681,1.194 -1.733,1.248l-5.533,-0.018l-3.366,16.055c0,0 -0.185,0.636 -0.557,0.975c-0.982,0.895 -2.748,0.554 -3.046,-1.125l-3.905,-31.387l-2.299,14.604c0,0 -0.526,1.479 -1.806,1.543l-3.783,0l-2.948,6.537c-0.763,1.178 -2.662,1.133 -3.285,-0.249l-4.863,-12.439l-1.193,3.093c-0.336,0.592 -0.682,0.96 -1.634,1.007l-2.897,0l0,-3.655l1.64,0l2.434,-6.341c0.589,-1.023 1.091,-1.149 2.096,-0.941Z" style="fill:#fff;fill-rule:nonzero;"/></svg>